<svg width="343" height="210" viewBox="0 0 343 210" fill="none" xmlns="http://www.w3.org/2000/svg">
<rect width="343" height="210" fill="#E8E8E8"/>
<g opacity="0.2">
<path d="M152.333 89.9999C149.112 89.9999 146.5 92.6116 146.5 95.8333C146.5 99.0549 149.112 101.667 152.333 101.667C155.555 101.667 158.167 99.0549 158.167 95.8333C158.167 92.6116 155.555 89.9999 152.333 89.9999Z" fill="#181818"/>
<path fill-rule="evenodd" clip-rule="evenodd" d="M134.833 131.667V78.3333H208.167V131.667H134.833ZM201.5 113.619V84.9999H141.5V120.286L158.166 103.619L168.166 113.619L184.833 96.9526L201.5 113.619ZM201.5 123.048L184.833 106.381L168.166 123.047L158.166 113.047L146.214 125H201.5V123.048Z" fill="#181818"/>
</g>
</svg>
